<svg width="1280" height="520" viewBox="0 0 1280 520" fill="none" xmlns="http://www.w3.org/2000/svg">
  <defs>
    <linearGradient id="bg" x1="0" y1="0" x2="1280" y2="520" gradientUnits="userSpaceOnUse">
      <stop offset="0" stop-color="#030712"/>
      <stop offset="0.52" stop-color="#0B1020"/>
      <stop offset="1" stop-color="#061B19"/>
    </linearGradient>
    <linearGradient id="curve" x1="94" y1="394" x2="812" y2="88" gradientUnits="userSpaceOnUse">
      <stop offset="0" stop-color="#38BDF8"/>
      <stop offset="0.48" stop-color="#A7F3D0"/>
      <stop offset="1" stop-color="#F8D66D"/>
    </linearGradient>
    <linearGradient id="fillCurve" x1="448" y1="92" x2="448" y2="394" gradientUnits="userSpaceOnUse">
      <stop offset="0" stop-color="#A7F3D0" stop-opacity="0.34"/>
      <stop offset="0.58" stop-color="#38BDF8" stop-opacity="0.12"/>
      <stop offset="1" stop-color="#38BDF8" stop-opacity="0"/>
    </linearGradient>
    <radialGradient id="glow" cx="0" cy="0" r="1" gradientUnits="userSpaceOnUse" gradientTransform="translate(796 102) rotate(146) scale(420 260)">
      <stop stop-color="#22D3EE" stop-opacity="0.28"/>
      <stop offset="0.58" stop-color="#14B8A6" stop-opacity="0.08"/>
      <stop offset="1" stop-color="#14B8A6" stop-opacity="0"/>
    </radialGradient>
    <pattern id="grid" width="32" height="32" patternUnits="userSpaceOnUse">
      <path d="M32 0H0V32" stroke="#FFFFFF" stroke-opacity="0.04" stroke-width="1"/>
      <circle cx="0" cy="0" r="1" fill="#FFFFFF" fill-opacity="0.11"/>
    </pattern>
    <filter id="softShadow" x="-20%" y="-20%" width="140%" height="140%" color-interpolation-filters="sRGB">
      <feDropShadow dx="0" dy="20" stdDeviation="28" flood-color="#000000" flood-opacity="0.42"/>
    </filter>
    <filter id="lineGlow" x="-20%" y="-40%" width="140%" height="180%" color-interpolation-filters="sRGB">
      <feDropShadow dx="0" dy="0" stdDeviation="8" flood-color="#A7F3D0" flood-opacity="0.52"/>
    </filter>
  </defs>

  <rect width="1280" height="520" rx="28" fill="url(#bg)"/>
  <rect width="1280" height="520" rx="28" fill="url(#grid)"/>
  <rect width="1280" height="520" rx="28" fill="url(#glow)"/>

  <g filter="url(#softShadow)">
    <rect x="48" y="44" width="1184" height="432" rx="24" fill="#030712" fill-opacity="0.58" stroke="#FFFFFF" stroke-opacity="0.1"/>
  </g>

  <g transform="translate(78 70)">
    <text x="0" y="24" fill="#A7F3D0" font-size="16" font-family="Inter, Segoe UI, Arial, sans-serif" letter-spacing="4">TRADING PERFORMANCE PROFILE</text>
    <text x="0" y="70" fill="#F8FAFC" font-size="38" font-family="Inter, Segoe UI, Arial, sans-serif" font-weight="800">4Y / 103,760.0% Equity Curve</text>
    <text x="0" y="104" fill="#CBD5E1" font-size="18" font-family="Inter, Segoe UI, Arial, sans-serif">Normalized execution ledger · Log-scale equity · Sentiment inflection capture</text>
  </g>

  <g transform="translate(78 150)">
    <rect x="0" y="0" width="770" height="282" rx="18" fill="#0F172A" fill-opacity="0.48" stroke="#FFFFFF" stroke-opacity="0.08"/>

    <line x1="64" y1="232" x2="720" y2="232" stroke="#FFFFFF" stroke-opacity="0.16"/>
    <line x1="64" y1="169" x2="720" y2="169" stroke="#FFFFFF" stroke-opacity="0.1"/>
    <line x1="64" y1="106" x2="720" y2="106" stroke="#FFFFFF" stroke-opacity="0.1"/>
    <line x1="64" y1="43" x2="720" y2="43" stroke="#FFFFFF" stroke-opacity="0.13"/>

    <line x1="64" y1="32" x2="64" y2="232" stroke="#FFFFFF" stroke-opacity="0.16"/>
    <line x1="228" y1="32" x2="228" y2="232" stroke="#FFFFFF" stroke-opacity="0.06"/>
    <line x1="392" y1="32" x2="392" y2="232" stroke="#FFFFFF" stroke-opacity="0.06"/>
    <line x1="556" y1="32" x2="556" y2="232" stroke="#FFFFFF" stroke-opacity="0.06"/>
    <line x1="720" y1="32" x2="720" y2="232" stroke="#FFFFFF" stroke-opacity="0.1"/>

    <text x="10" y="237" fill="#94A3B8" font-size="13" font-family="Inter, Segoe UI, Arial, sans-serif">100%</text>
    <text x="2" y="174" fill="#94A3B8" font-size="13" font-family="Inter, Segoe UI, Arial, sans-serif">1,000%</text>
    <text x="0" y="111" fill="#94A3B8" font-size="13" font-family="Inter, Segoe UI, Arial, sans-serif">10,000%</text>
    <text x="0" y="48" fill="#94A3B8" font-size="13" font-family="Inter, Segoe UI, Arial, sans-serif">100,000%</text>

    <text x="58" y="258" fill="#64748B" font-size="13" font-family="Inter, Segoe UI, Arial, sans-serif">Y0</text>
    <text x="218" y="258" fill="#64748B" font-size="13" font-family="Inter, Segoe UI, Arial, sans-serif">Y1</text>
    <text x="382" y="258" fill="#64748B" font-size="13" font-family="Inter, Segoe UI, Arial, sans-serif">Y2</text>
    <text x="546" y="258" fill="#64748B" font-size="13" font-family="Inter, Segoe UI, Arial, sans-serif">Y3</text>
    <text x="710" y="258" fill="#64748B" font-size="13" font-family="Inter, Segoe UI, Arial, sans-serif">Y4</text>

    <path d="M64.0 232.0
      L70.8 232.4
      L77.7 232.5
      L84.5 232.2
      L91.3 232.2
      L98.2 232.4
      L105.0 223.6
      L111.8 224.0
      L118.7 223.7
      L125.5 223.9
      L132.3 215.6
      L139.2 215.1
      L146.0 215.0
      L152.8 214.6
      L159.7 214.3
      L166.5 208.3
      L173.3 208.4
      L180.2 208.2
      L187.0 208.7
      L193.8 203.2
      L200.7 202.8
      L207.5 202.9
      L214.3 193.5
      L221.2 193.2
      L228.0 193.0
      L234.8 186.0
      L241.7 186.3
      L248.5 185.9
      L255.3 186.2
      L262.2 186.3
      L269.0 186.3
      L275.8 179.9
      L282.7 179.7
      L289.5 179.4
      L296.3 170.5
      L303.2 170.6
      L310.0 170.8
      L316.8 171.3
      L323.7 171.2
      L330.5 165.6
      L337.3 165.8
      L344.2 165.4
      L351.0 165.1
      L357.8 158.6
      L364.7 159.0
      L371.5 159.3
      L378.3 150.1
      L385.2 150.6
      L392.0 150.7
      L398.8 141.0
      L405.7 141.0
      L412.5 140.8
      L419.3 140.4
      L426.2 140.3
      L433.0 139.9
      L439.8 129.7
      L446.7 129.6
      L453.5 130.0
      L460.3 121.8
      L467.2 121.6
      L474.0 122.1
      L480.8 122.2
      L487.7 121.9
      L494.5 114.1
      L501.3 113.8
      L508.2 114.0
      L515.0 114.0
      L521.8 106.1
      L528.7 106.4
      L535.5 106.4
      L542.3 97.6
      L549.2 97.4
      L556.0 97.6
      L562.8 89.7
      L569.7 90.7
      L576.5 92.0
      L583.3 92.8
      L590.2 93.0
      L597.0 93.2
      L603.8 85.2
      L610.7 85.1
      L617.5 85.0
      L624.3 75.5
      L631.2 75.5
      L638.0 75.3
      L644.8 75.1
      L651.7 75.3
      L658.5 65.8
      L665.3 66.1
      L672.2 66.1
      L679.0 57.4
      L685.8 57.2
      L692.7 57.5
      L699.5 49.4
      L706.3 49.8
      L713.2 49.8
      L720.0 42.0
      L720 232 L64 232 Z" fill="url(#fillCurve)"/>

    <path d="M64.0 232.0
      L70.8 232.4
      L77.7 232.5
      L84.5 232.2
      L91.3 232.2
      L98.2 232.4
      L105.0 223.6
      L111.8 224.0
      L118.7 223.7
      L125.5 223.9
      L132.3 215.6
      L139.2 215.1
      L146.0 215.0
      L152.8 214.6
      L159.7 214.3
      L166.5 208.3
      L173.3 208.4
      L180.2 208.2
      L187.0 208.7
      L193.8 203.2
      L200.7 202.8
      L207.5 202.9
      L214.3 193.5
      L221.2 193.2
      L228.0 193.0
      L234.8 186.0
      L241.7 186.3
      L248.5 185.9
      L255.3 186.2
      L262.2 186.3
      L269.0 186.3
      L275.8 179.9
      L282.7 179.7
      L289.5 179.4
      L296.3 170.5
      L303.2 170.6
      L310.0 170.8
      L316.8 171.3
      L323.7 171.2
      L330.5 165.6
      L337.3 165.8
      L344.2 165.4
      L351.0 165.1
      L357.8 158.6
      L364.7 159.0
      L371.5 159.3
      L378.3 150.1
      L385.2 150.6
      L392.0 150.7
      L398.8 141.0
      L405.7 141.0
      L412.5 140.8
      L419.3 140.4
      L426.2 140.3
      L433.0 139.9
      L439.8 129.7
      L446.7 129.6
      L453.5 130.0
      L460.3 121.8
      L467.2 121.6
      L474.0 122.1
      L480.8 122.2
      L487.7 121.9
      L494.5 114.1
      L501.3 113.8
      L508.2 114.0
      L515.0 114.0
      L521.8 106.1
      L528.7 106.4
      L535.5 106.4
      L542.3 97.6
      L549.2 97.4
      L556.0 97.6
      L562.8 89.7
      L569.7 90.7
      L576.5 92.0
      L583.3 92.8
      L590.2 93.0
      L597.0 93.2
      L603.8 85.2
      L610.7 85.1
      L617.5 85.0
      L624.3 75.5
      L631.2 75.5
      L638.0 75.3
      L644.8 75.1
      L651.7 75.3
      L658.5 65.8
      L665.3 66.1
      L672.2 66.1
      L679.0 57.4
      L685.8 57.2
      L692.7 57.5
      L699.5 49.4
      L706.3 49.8
      L713.2 49.8
      L720.0 42.0" stroke="url(#curve)" stroke-width="4" stroke-linecap="round" stroke-linejoin="round" filter="url(#lineGlow)"/>

    <path d="M562.8 89.7 L597.0 93.2" stroke="#F87171" stroke-width="4" stroke-linecap="round"/>
    <text x="505" y="108" fill="#FCA5A5" font-size="12" font-family="Inter, Segoe UI, Arial, sans-serif">Max DD -11.8%</text>

    <circle cx="720" cy="42" r="6" fill="#F8D66D"/>
    <circle cx="720" cy="42" r="13" stroke="#F8D66D" stroke-opacity="0.34" stroke-width="2"/>
    <text x="575" y="28" fill="#F8FAFC" font-size="17" font-family="Inter, Segoe UI, Arial, sans-serif" font-weight="700">103,760.0%</text>
    <text x="575" y="51" fill="#94A3B8" font-size="13" font-family="Inter, Segoe UI, Arial, sans-serif">event-weighted ledger · log scale</text>
  </g>

  <g transform="translate(868 72)">
    <rect x="0" y="0" width="320" height="370" rx="20" fill="#0F172A" fill-opacity="0.64" stroke="#FFFFFF" stroke-opacity="0.1"/>
    <text x="24" y="38" fill="#A7F3D0" font-size="15" font-family="Inter, Segoe UI, Arial, sans-serif" letter-spacing="3">LEDGER METRICS</text>
    <text x="24" y="80" fill="#F8FAFC" font-size="34" font-family="Inter, Segoe UI, Arial, sans-serif" font-weight="800">Equity %</text>
    <text x="24" y="106" fill="#94A3B8" font-size="15" font-family="Inter, Segoe UI, Arial, sans-serif">Initial capital = 100.0%</text>
    <text x="24" y="126" fill="#94A3B8" font-size="15" font-family="Inter, Segoe UI, Arial, sans-serif">Compounded with ledger-style drawdowns</text>

    <g transform="translate(24 136)">
      <rect x="0" y="0" width="272" height="54" rx="12" fill="#030712" fill-opacity="0.56" stroke="#38BDF8" stroke-opacity="0.18"/>
      <text x="16" y="22" fill="#94A3B8" font-size="12" font-family="Inter, Segoe UI, Arial, sans-serif">FINAL EQUITY</text>
      <text x="86" y="38" fill="#F8FAFC" font-size="26" font-family="Inter, Segoe UI, Arial, sans-serif" font-weight="800">103,760.0%</text>
    </g>

    <g transform="translate(24 204)">
      <rect x="0" y="0" width="130" height="54" rx="12" fill="#030712" fill-opacity="0.56" stroke="#A7F3D0" stroke-opacity="0.16"/>
      <text x="14" y="22" fill="#94A3B8" font-size="12" font-family="Inter, Segoe UI, Arial, sans-serif">TOTAL RETURN</text>
      <text x="14" y="42" fill="#F8FAFC" font-size="18" font-family="Inter, Segoe UI, Arial, sans-serif" font-weight="800">103,660.0%</text>

      <rect x="142" y="0" width="130" height="54" rx="12" fill="#030712" fill-opacity="0.56" stroke="#F8D66D" stroke-opacity="0.16"/>
      <text x="156" y="22" fill="#94A3B8" font-size="12" font-family="Inter, Segoe UI, Arial, sans-serif">MAX DD</text>
      <text x="156" y="42" fill="#F8FAFC" font-size="23" font-family="Inter, Segoe UI, Arial, sans-serif" font-weight="800">-11.8%</text>
    </g>

    <g transform="translate(24 272)">
      <rect x="0" y="0" width="130" height="54" rx="12" fill="#030712" fill-opacity="0.56" stroke="#38BDF8" stroke-opacity="0.16"/>
      <text x="14" y="22" fill="#94A3B8" font-size="12" font-family="Inter, Segoe UI, Arial, sans-serif">SHARPE</text>
      <text x="14" y="42" fill="#F8FAFC" font-size="23" font-family="Inter, Segoe UI, Arial, sans-serif" font-weight="800">2.69</text>

      <rect x="142" y="0" width="130" height="54" rx="12" fill="#030712" fill-opacity="0.56" stroke="#A7F3D0" stroke-opacity="0.16"/>
      <text x="156" y="22" fill="#94A3B8" font-size="12" font-family="Inter, Segoe UI, Arial, sans-serif">CAGR</text>
      <text x="156" y="42" fill="#F8FAFC" font-size="23" font-family="Inter, Segoe UI, Arial, sans-serif" font-weight="800">467.5%</text>
    </g>

    <text x="24" y="340" fill="#94A3B8" font-size="11" font-family="Inter, Segoe UI, Arial, sans-serif">SORTINO 8.12 · CALMAR 39.6</text>
    <text x="24" y="352" fill="#94A3B8" font-size="11" font-family="Inter, Segoe UI, Arial, sans-serif">EVENT LEDGER · LOG-SCALE EQUITY</text>
  </g>
</svg>
