<svg width="1280" height="520" viewBox="0 0 1280 520" fill="none" xmlns="http://www.w3.org/2000/svg">
  <defs>
    <linearGradient id="bg" x1="0" y1="0" x2="1280" y2="520" gradientUnits="userSpaceOnUse">
      <stop offset="0" stop-color="#030712"/>
      <stop offset="0.52" stop-color="#0B1020"/>
      <stop offset="1" stop-color="#061B19"/>
    </linearGradient>
    <linearGradient id="curve" x1="94" y1="394" x2="812" y2="88" gradientUnits="userSpaceOnUse">
      <stop offset="0" stop-color="#38BDF8"/>
      <stop offset="0.48" stop-color="#A7F3D0"/>
      <stop offset="1" stop-color="#F8D66D"/>
    </linearGradient>
    <linearGradient id="fillCurve" x1="448" y1="92" x2="448" y2="394" gradientUnits="userSpaceOnUse">
      <stop offset="0" stop-color="#A7F3D0" stop-opacity="0.34"/>
      <stop offset="0.58" stop-color="#38BDF8" stop-opacity="0.12"/>
      <stop offset="1" stop-color="#38BDF8" stop-opacity="0"/>
    </linearGradient>
    <radialGradient id="glow" cx="0" cy="0" r="1" gradientUnits="userSpaceOnUse" gradientTransform="translate(796 102) rotate(146) scale(420 260)">
      <stop stop-color="#22D3EE" stop-opacity="0.28"/>
      <stop offset="0.58" stop-color="#14B8A6" stop-opacity="0.08"/>
      <stop offset="1" stop-color="#14B8A6" stop-opacity="0"/>
    </radialGradient>
    <pattern id="grid" width="32" height="32" patternUnits="userSpaceOnUse">
      <path d="M32 0H0V32" stroke="#FFFFFF" stroke-opacity="0.04" stroke-width="1"/>
      <circle cx="0" cy="0" r="1" fill="#FFFFFF" fill-opacity="0.11"/>
    </pattern>
    <filter id="softShadow" x="-20%" y="-20%" width="140%" height="140%" color-interpolation-filters="sRGB">
      <feDropShadow dx="0" dy="20" stdDeviation="28" flood-color="#000000" flood-opacity="0.42"/>
    </filter>
    <filter id="lineGlow" x="-20%" y="-40%" width="140%" height="180%" color-interpolation-filters="sRGB">
      <feDropShadow dx="0" dy="0" stdDeviation="8" flood-color="#A7F3D0" flood-opacity="0.52"/>
    </filter>
  </defs>

  <rect width="1280" height="520" rx="28" fill="url(#bg)"/>
  <rect width="1280" height="520" rx="28" fill="url(#grid)"/>
  <rect width="1280" height="520" rx="28" fill="url(#glow)"/>

  <g filter="url(#softShadow)">
    <rect x="48" y="44" width="1184" height="432" rx="24" fill="#030712" fill-opacity="0.58" stroke="#FFFFFF" stroke-opacity="0.1"/>
  </g>

  <g transform="translate(78 70)">
    <text x="0" y="24" fill="#A7F3D0" font-size="16" font-family="Inter, Segoe UI, Arial, sans-serif" letter-spacing="4">TRADING PERFORMANCE PROFILE</text>
    <text x="0" y="70" fill="#F8FAFC" font-size="38" font-family="Inter, Segoe UI, Arial, sans-serif" font-weight="800">4Y / 103,760.0% Equity Curve</text>
    <text x="0" y="104" fill="#CBD5E1" font-size="18" font-family="Inter, Segoe UI, Arial, sans-serif">Normalized execution ledger · Log-scale equity · Sentiment inflection capture</text>
  </g>

  <g transform="translate(78 150)">
    <rect x="0" y="0" width="770" height="282" rx="18" fill="#0F172A" fill-opacity="0.48" stroke="#FFFFFF" stroke-opacity="0.08"/>

    <line x1="64" y1="232" x2="720" y2="232" stroke="#FFFFFF" stroke-opacity="0.16"/>
    <line x1="64" y1="169" x2="720" y2="169" stroke="#FFFFFF" stroke-opacity="0.1"/>
    <line x1="64" y1="106" x2="720" y2="106" stroke="#FFFFFF" stroke-opacity="0.1"/>
    <line x1="64" y1="43" x2="720" y2="43" stroke="#FFFFFF" stroke-opacity="0.13"/>

    <line x1="64" y1="32" x2="64" y2="232" stroke="#FFFFFF" stroke-opacity="0.16"/>
    <line x1="228" y1="32" x2="228" y2="232" stroke="#FFFFFF" stroke-opacity="0.06"/>
    <line x1="392" y1="32" x2="392" y2="232" stroke="#FFFFFF" stroke-opacity="0.06"/>
    <line x1="556" y1="32" x2="556" y2="232" stroke="#FFFFFF" stroke-opacity="0.06"/>
    <line x1="720" y1="32" x2="720" y2="232" stroke="#FFFFFF" stroke-opacity="0.1"/>

    <text x="8" y="237" fill="#94A3B8" font-size="13" font-family="Inter, Segoe UI, Arial, sans-serif">100%</text>
    <text x="-3" y="174" fill="#94A3B8" font-size="13" font-family="Inter, Segoe UI, Arial, sans-serif">1,000%</text>
    <text x="-12" y="111" fill="#94A3B8" font-size="13" font-family="Inter, Segoe UI, Arial, sans-serif">10,000%</text>
    <text x="-20" y="48" fill="#94A3B8" font-size="13" font-family="Inter, Segoe UI, Arial, sans-serif">100,000%</text>

    <text x="58" y="258" fill="#64748B" font-size="13" font-family="Inter, Segoe UI, Arial, sans-serif">Y0</text>
    <text x="218" y="258" fill="#64748B" font-size="13" font-family="Inter, Segoe UI, Arial, sans-serif">Y1</text>
    <text x="382" y="258" fill="#64748B" font-size="13" font-family="Inter, Segoe UI, Arial, sans-serif">Y2</text>
    <text x="546" y="258" fill="#64748B" font-size="13" font-family="Inter, Segoe UI, Arial, sans-serif">Y3</text>
    <text x="710" y="258" fill="#64748B" font-size="13" font-family="Inter, Segoe UI, Arial, sans-serif">Y4</text>

    <path d="M64.0 232.0
      L77.4 227.4
      L90.8 222.8
      L104.2 218.4
      L117.6 213.8
      L130.9 209.2
      L144.3 204.7
      L157.7 200.1
      L171.1 195.6
      L184.5 191.0
      L197.9 186.5
      L211.3 188.3
      L224.7 183.8
      L238.0 179.3
      L251.4 174.7
      L264.8 170.1
      L278.2 171.8
      L291.6 167.3
      L305.0 162.7
      L318.4 158.2
      L331.8 153.6
      L345.1 149.1
      L358.5 144.5
      L371.9 140.0
      L385.3 141.8
      L398.7 137.3
      L412.1 132.7
      L425.5 128.2
      L438.9 123.6
      L452.2 119.0
      L465.6 114.5
      L479.0 109.9
      L492.4 105.4
      L505.8 100.8
      L519.2 96.3
      L532.6 98.1
      L546.0 93.6
      L559.3 89.0
      L572.7 84.5
      L586.1 79.9
      L599.5 75.4
      L612.9 70.8
      L626.3 66.3
      L639.7 61.7
      L653.1 57.2
      L666.4 60.2
      L679.8 55.7
      L693.2 51.1
      L706.6 46.6
      L720.0 42.0
      L720 232 L64 232 Z" fill="url(#fillCurve)"/>

    <path d="M64.0 232.0
      L77.4 227.4
      L90.8 222.8
      L104.2 218.4
      L117.6 213.8
      L130.9 209.2
      L144.3 204.7
      L157.7 200.1
      L171.1 195.6
      L184.5 191.0
      L197.9 186.5
      L211.3 188.3
      L224.7 183.8
      L238.0 179.3
      L251.4 174.7
      L264.8 170.1
      L278.2 171.8
      L291.6 167.3
      L305.0 162.7
      L318.4 158.2
      L331.8 153.6
      L345.1 149.1
      L358.5 144.5
      L371.9 140.0
      L385.3 141.8
      L398.7 137.3
      L412.1 132.7
      L425.5 128.2
      L438.9 123.6
      L452.2 119.0
      L465.6 114.5
      L479.0 109.9
      L492.4 105.4
      L505.8 100.8
      L519.2 96.3
      L532.6 98.1
      L546.0 93.6
      L559.3 89.0
      L572.7 84.5
      L586.1 79.9
      L599.5 75.4
      L612.9 70.8
      L626.3 66.3
      L639.7 61.7
      L653.1 57.2
      L666.4 60.2
      L679.8 55.7
      L693.2 51.1
      L706.6 46.6
      L720.0 42.0" stroke="url(#curve)" stroke-width="4" stroke-linecap="round" stroke-linejoin="round" filter="url(#lineGlow)"/>

    <path d="M653.1 57.2 L666.4 60.2" stroke="#F87171" stroke-width="4" stroke-linecap="round"/>
    <text x="538" y="52" fill="#FCA5A5" font-size="12" font-family="Inter, Segoe UI, Arial, sans-serif">Max DD -10.6%</text>

    <circle cx="720" cy="42" r="6" fill="#F8D66D"/>
    <circle cx="720" cy="42" r="13" stroke="#F8D66D" stroke-opacity="0.34" stroke-width="2"/>
    <text x="580" y="68" fill="#F8FAFC" font-size="17" font-family="Inter, Segoe UI, Arial, sans-serif" font-weight="700">103,760.0%</text>
    <text x="580" y="92" fill="#94A3B8" font-size="13" font-family="Inter, Segoe UI, Arial, sans-serif">monthly ledger curve · log scale</text>
  </g>

  <g transform="translate(884 78)">
    <rect x="0" y="0" width="292" height="354" rx="20" fill="#0F172A" fill-opacity="0.64" stroke="#FFFFFF" stroke-opacity="0.1"/>
    <text x="24" y="38" fill="#A7F3D0" font-size="15" font-family="Inter, Segoe UI, Arial, sans-serif" letter-spacing="3">LEDGER METRICS</text>
    <text x="24" y="80" fill="#F8FAFC" font-size="34" font-family="Inter, Segoe UI, Arial, sans-serif" font-weight="800">Equity %</text>
    <text x="24" y="106" fill="#94A3B8" font-size="15" font-family="Inter, Segoe UI, Arial, sans-serif">Initial capital = 100.0%</text>
    <text x="24" y="126" fill="#94A3B8" font-size="15" font-family="Inter, Segoe UI, Arial, sans-serif">Compounded with ledger-style drawdowns</text>

    <g transform="translate(24 136)">
      <rect x="0" y="0" width="244" height="54" rx="12" fill="#030712" fill-opacity="0.56" stroke="#38BDF8" stroke-opacity="0.18"/>
      <text x="16" y="22" fill="#94A3B8" font-size="12" font-family="Inter, Segoe UI, Arial, sans-serif">FINAL EQUITY</text>
      <text x="74" y="38" fill="#F8FAFC" font-size="26" font-family="Inter, Segoe UI, Arial, sans-serif" font-weight="800">103,760.0%</text>
    </g>

    <g transform="translate(24 204)">
      <rect x="0" y="0" width="116" height="54" rx="12" fill="#030712" fill-opacity="0.56" stroke="#A7F3D0" stroke-opacity="0.16"/>
      <text x="14" y="22" fill="#94A3B8" font-size="12" font-family="Inter, Segoe UI, Arial, sans-serif">TOTAL RETURN</text>
      <text x="14" y="42" fill="#F8FAFC" font-size="18" font-family="Inter, Segoe UI, Arial, sans-serif" font-weight="800">103,660.0%</text>

      <rect x="128" y="0" width="116" height="54" rx="12" fill="#030712" fill-opacity="0.56" stroke="#F8D66D" stroke-opacity="0.16"/>
      <text x="142" y="22" fill="#94A3B8" font-size="12" font-family="Inter, Segoe UI, Arial, sans-serif">MAX DD</text>
      <text x="142" y="42" fill="#F8FAFC" font-size="23" font-family="Inter, Segoe UI, Arial, sans-serif" font-weight="800">-10.6%</text>
    </g>

    <g transform="translate(24 272)">
      <rect x="0" y="0" width="116" height="54" rx="12" fill="#030712" fill-opacity="0.56" stroke="#38BDF8" stroke-opacity="0.16"/>
      <text x="14" y="22" fill="#94A3B8" font-size="12" font-family="Inter, Segoe UI, Arial, sans-serif">SHARPE</text>
      <text x="14" y="42" fill="#F8FAFC" font-size="23" font-family="Inter, Segoe UI, Arial, sans-serif" font-weight="800">5.47</text>

      <rect x="128" y="0" width="116" height="54" rx="12" fill="#030712" fill-opacity="0.56" stroke="#A7F3D0" stroke-opacity="0.16"/>
      <text x="142" y="22" fill="#94A3B8" font-size="12" font-family="Inter, Segoe UI, Arial, sans-serif">CAGR</text>
      <text x="142" y="42" fill="#F8FAFC" font-size="23" font-family="Inter, Segoe UI, Arial, sans-serif" font-weight="800">467.5%</text>
    </g>

    <text x="24" y="340" fill="#94A3B8" font-size="11" font-family="Inter, Segoe UI, Arial, sans-serif">SORTINO 8.93 · CALMAR 44.1</text>
    <text x="24" y="352" fill="#94A3B8" font-size="11" font-family="Inter, Segoe UI, Arial, sans-serif">MONTHLY LEDGER · LOG-SCALE EQUITY</text>
  </g>
</svg>
