<svg width="1280" height="520" viewBox="0 0 1280 520" fill="none" xmlns="http://www.w3.org/2000/svg">
  <defs>
    <linearGradient id="bg" x1="0" y1="0" x2="1280" y2="520" gradientUnits="userSpaceOnUse">
      <stop offset="0" stop-color="#030712"/>
      <stop offset="0.52" stop-color="#0B1020"/>
      <stop offset="1" stop-color="#061B19"/>
    </linearGradient>
    <linearGradient id="curve" x1="94" y1="394" x2="812" y2="88" gradientUnits="userSpaceOnUse">
      <stop offset="0" stop-color="#38BDF8"/>
      <stop offset="0.48" stop-color="#A7F3D0"/>
      <stop offset="1" stop-color="#F8D66D"/>
    </linearGradient>
    <linearGradient id="fillCurve" x1="448" y1="92" x2="448" y2="394" gradientUnits="userSpaceOnUse">
      <stop offset="0" stop-color="#A7F3D0" stop-opacity="0.34"/>
      <stop offset="0.58" stop-color="#38BDF8" stop-opacity="0.12"/>
      <stop offset="1" stop-color="#38BDF8" stop-opacity="0"/>
    </linearGradient>
    <radialGradient id="glow" cx="0" cy="0" r="1" gradientUnits="userSpaceOnUse" gradientTransform="translate(796 102) rotate(146) scale(420 260)">
      <stop stop-color="#22D3EE" stop-opacity="0.28"/>
      <stop offset="0.58" stop-color="#14B8A6" stop-opacity="0.08"/>
      <stop offset="1" stop-color="#14B8A6" stop-opacity="0"/>
    </radialGradient>
    <pattern id="grid" width="32" height="32" patternUnits="userSpaceOnUse">
      <path d="M32 0H0V32" stroke="#FFFFFF" stroke-opacity="0.04" stroke-width="1"/>
      <circle cx="0" cy="0" r="1" fill="#FFFFFF" fill-opacity="0.11"/>
    </pattern>
    <filter id="softShadow" x="-20%" y="-20%" width="140%" height="140%" color-interpolation-filters="sRGB">
      <feDropShadow dx="0" dy="20" stdDeviation="28" flood-color="#000000" flood-opacity="0.42"/>
    </filter>
    <filter id="lineGlow" x="-20%" y="-40%" width="140%" height="180%" color-interpolation-filters="sRGB">
      <feDropShadow dx="0" dy="0" stdDeviation="8" flood-color="#A7F3D0" flood-opacity="0.52"/>
    </filter>
  </defs>

  <rect width="1280" height="520" rx="28" fill="url(#bg)"/>
  <rect width="1280" height="520" rx="28" fill="url(#grid)"/>
  <rect width="1280" height="520" rx="28" fill="url(#glow)"/>

  <g filter="url(#softShadow)">
    <rect x="48" y="44" width="1184" height="432" rx="24" fill="#030712" fill-opacity="0.58" stroke="#FFFFFF" stroke-opacity="0.1"/>
  </g>

  <g transform="translate(78 70)">
    <text x="0" y="24" fill="#A7F3D0" font-size="16" font-family="Inter, Segoe UI, Arial, sans-serif" letter-spacing="4">TRADING PERFORMANCE PROFILE</text>
    <text x="0" y="70" fill="#F8FAFC" font-size="38" font-family="Inter, Segoe UI, Arial, sans-serif" font-weight="800">4Y / 1000x Equity Curve</text>
    <text x="0" y="104" fill="#CBD5E1" font-size="18" font-family="Inter, Segoe UI, Arial, sans-serif">Market-first execution · Sentiment games · Inflection capture</text>
  </g>

  <g transform="translate(78 150)">
    <rect x="0" y="0" width="770" height="282" rx="18" fill="#0F172A" fill-opacity="0.48" stroke="#FFFFFF" stroke-opacity="0.08"/>

    <line x1="64" y1="232" x2="720" y2="232" stroke="#FFFFFF" stroke-opacity="0.16"/>
    <line x1="64" y1="169" x2="720" y2="169" stroke="#FFFFFF" stroke-opacity="0.1"/>
    <line x1="64" y1="106" x2="720" y2="106" stroke="#FFFFFF" stroke-opacity="0.1"/>
    <line x1="64" y1="43" x2="720" y2="43" stroke="#FFFFFF" stroke-opacity="0.13"/>

    <line x1="64" y1="32" x2="64" y2="232" stroke="#FFFFFF" stroke-opacity="0.16"/>
    <line x1="228" y1="32" x2="228" y2="232" stroke="#FFFFFF" stroke-opacity="0.06"/>
    <line x1="392" y1="32" x2="392" y2="232" stroke="#FFFFFF" stroke-opacity="0.06"/>
    <line x1="556" y1="32" x2="556" y2="232" stroke="#FFFFFF" stroke-opacity="0.06"/>
    <line x1="720" y1="32" x2="720" y2="232" stroke="#FFFFFF" stroke-opacity="0.1"/>

    <text x="18" y="237" fill="#94A3B8" font-size="13" font-family="Inter, Segoe UI, Arial, sans-serif">1x</text>
    <text x="12" y="174" fill="#94A3B8" font-size="13" font-family="Inter, Segoe UI, Arial, sans-serif">10x</text>
    <text x="6" y="111" fill="#94A3B8" font-size="13" font-family="Inter, Segoe UI, Arial, sans-serif">100x</text>
    <text x="0" y="48" fill="#94A3B8" font-size="13" font-family="Inter, Segoe UI, Arial, sans-serif">1000x</text>

    <text x="58" y="258" fill="#64748B" font-size="13" font-family="Inter, Segoe UI, Arial, sans-serif">Y0</text>
    <text x="218" y="258" fill="#64748B" font-size="13" font-family="Inter, Segoe UI, Arial, sans-serif">Y1</text>
    <text x="382" y="258" fill="#64748B" font-size="13" font-family="Inter, Segoe UI, Arial, sans-serif">Y2</text>
    <text x="546" y="258" fill="#64748B" font-size="13" font-family="Inter, Segoe UI, Arial, sans-serif">Y3</text>
    <text x="710" y="258" fill="#64748B" font-size="13" font-family="Inter, Segoe UI, Arial, sans-serif">Y4</text>

    <path d="M64 232
      C88 230 100 229 118 225
      C136 221 143 224 158 217
      C177 209 185 213 204 201
      C225 188 234 193 252 181
      C277 164 284 169 306 153
      C332 134 342 141 366 121
      C392 100 405 108 428 91
      C454 73 470 82 494 68
      C520 52 536 60 560 48
      C590 33 608 42 637 32
      C668 21 690 29 720 18
      L720 232 L64 232 Z" fill="url(#fillCurve)"/>

    <path d="M64 232
      C88 230 100 229 118 225
      C136 221 143 224 158 217
      C177 209 185 213 204 201
      C225 188 234 193 252 181
      C277 164 284 169 306 153
      C332 134 342 141 366 121
      C392 100 405 108 428 91
      C454 73 470 82 494 68
      C520 52 536 60 560 48
      C590 33 608 42 637 32
      C668 21 690 29 720 18" stroke="url(#curve)" stroke-width="4" stroke-linecap="round" filter="url(#lineGlow)"/>

    <circle cx="720" cy="18" r="6" fill="#F8D66D"/>
    <circle cx="720" cy="18" r="13" stroke="#F8D66D" stroke-opacity="0.34" stroke-width="2"/>
    <text x="594" y="52" fill="#F8FAFC" font-size="17" font-family="Inter, Segoe UI, Arial, sans-serif" font-weight="700">1000x</text>
    <text x="594" y="76" fill="#94A3B8" font-size="13" font-family="Inter, Segoe UI, Arial, sans-serif">controlled drawdown profile</text>
  </g>

  <g transform="translate(884 78)">
    <rect x="0" y="0" width="292" height="354" rx="20" fill="#0F172A" fill-opacity="0.64" stroke="#FFFFFF" stroke-opacity="0.1"/>
    <text x="24" y="38" fill="#A7F3D0" font-size="15" font-family="Inter, Segoe UI, Arial, sans-serif" letter-spacing="3">QUANT PROFILE</text>
    <text x="24" y="80" fill="#F8FAFC" font-size="34" font-family="Inter, Segoe UI, Arial, sans-serif" font-weight="800">High Sharpe</text>
    <text x="24" y="106" fill="#94A3B8" font-size="15" font-family="Inter, Segoe UI, Arial, sans-serif">Asymmetric growth with</text>
    <text x="24" y="126" fill="#94A3B8" font-size="15" font-family="Inter, Segoe UI, Arial, sans-serif">disciplined pullbacks</text>

    <g transform="translate(24 136)">
      <rect x="0" y="0" width="244" height="54" rx="12" fill="#030712" fill-opacity="0.56" stroke="#38BDF8" stroke-opacity="0.18"/>
      <text x="16" y="22" fill="#94A3B8" font-size="12" font-family="Inter, Segoe UI, Arial, sans-serif">SHARPE RATIO</text>
      <text x="166" y="38" fill="#F8FAFC" font-size="28" font-family="Inter, Segoe UI, Arial, sans-serif" font-weight="800">5.82</text>
    </g>

    <g transform="translate(24 204)">
      <rect x="0" y="0" width="116" height="54" rx="12" fill="#030712" fill-opacity="0.56" stroke="#A7F3D0" stroke-opacity="0.16"/>
      <text x="14" y="22" fill="#94A3B8" font-size="12" font-family="Inter, Segoe UI, Arial, sans-serif">SORTINO</text>
      <text x="14" y="42" fill="#F8FAFC" font-size="23" font-family="Inter, Segoe UI, Arial, sans-serif" font-weight="800">9.64</text>

      <rect x="128" y="0" width="116" height="54" rx="12" fill="#030712" fill-opacity="0.56" stroke="#F8D66D" stroke-opacity="0.16"/>
      <text x="142" y="22" fill="#94A3B8" font-size="12" font-family="Inter, Segoe UI, Arial, sans-serif">MAX DD</text>
      <text x="142" y="42" fill="#F8FAFC" font-size="23" font-family="Inter, Segoe UI, Arial, sans-serif" font-weight="800">-11.8%</text>
    </g>

    <g transform="translate(24 272)">
      <rect x="0" y="0" width="116" height="54" rx="12" fill="#030712" fill-opacity="0.56" stroke="#38BDF8" stroke-opacity="0.16"/>
      <text x="14" y="22" fill="#94A3B8" font-size="12" font-family="Inter, Segoe UI, Arial, sans-serif">CAGR</text>
      <text x="14" y="42" fill="#F8FAFC" font-size="23" font-family="Inter, Segoe UI, Arial, sans-serif" font-weight="800">462%</text>

      <rect x="128" y="0" width="116" height="54" rx="12" fill="#030712" fill-opacity="0.56" stroke="#A7F3D0" stroke-opacity="0.16"/>
      <text x="142" y="22" fill="#94A3B8" font-size="12" font-family="Inter, Segoe UI, Arial, sans-serif">CALMAR</text>
      <text x="142" y="42" fill="#F8FAFC" font-size="23" font-family="Inter, Segoe UI, Arial, sans-serif" font-weight="800">39.2</text>
    </g>
  </g>
</svg>
